HIERARCHY
ROOT Hips
{
  OFFSET 0 0 0
  CHANNELS 6 Xposition Yposition Zposition Zrotation Yrotation Xrotation
  JOINT LeftThigh
  {
    OFFSET 8.409438 0 -5.917753
    CHANNELS 3 Zrotation Yrotation Xrotation
    JOINT LeftLeg
    {
      OFFSET 0 0 -42.358652
      CHANNELS 3 Zrotation Yrotation Xrotation
      JOINT LeftFoot
      {
        OFFSET 0 0 -39.357303
        CHANNELS 3 Zrotation Yrotation Xrotation
      }
    }
  }
  JOINT RightThigh
  {
    OFFSET -8.409438 0 -5.917753
    CHANNELS 3 Zrotation Yrotation Xrotation
    JOINT RightLeg
    {
      OFFSET 0 0 -42.358652
      CHANNELS 3 Zrotation Yrotation Xrotation
      JOINT RightFoot
      {
        OFFSET 0 0 -39.357303
        CHANNELS 3 Zrotation Yrotation Xrotation
      }
    }
  }
  JOINT SpineLow
  {
    OFFSET 0 0 4.719101
    CHANNELS 3 Zrotation Yrotation Xrotation
    JOINT SpineMid
    {
      OFFSET 0 0 12.899191
      CHANNELS 3 Zrotation Yrotation Xrotation
      JOINT Chest
      {
        OFFSET 0 0 12.899191
        CHANNELS 3 Zrotation Yrotation Xrotation
        JOINT LeftShoulder
        {
          OFFSET 7.550562 1.41573 9.438202
          CHANNELS 3 Zrotation Yrotation Xrotation
          JOINT LeftArm
          {
            OFFSET 9.155056 0 4.247191
            CHANNELS 3 Zrotation Yrotation Xrotation
            JOINT LeftForearm
            {
              OFFSET 0 0 25.771955
              CHANNELS 3 Zrotation Yrotation Xrotation
              JOINT LeftHand
              {
                OFFSET 0 0 25.197169
                CHANNELS 3 Zrotation Yrotation Xrotation
              }
            }
          }
        }
        JOINT RightShoulder
        {
          OFFSET -7.550562 1.41573 9.438202
          CHANNELS 3 Zrotation Yrotation Xrotation
          JOINT RightArm
          {
            OFFSET -9.155056 0 4.247191
            CHANNELS 3 Zrotation Yrotation Xrotation
            JOINT RightForearm
            {
              OFFSET 0 0 -25.771955
              CHANNELS 3 Zrotation Yrotation Xrotation
              JOINT RightHand
              {
                OFFSET 0 0 -25.197169
                CHANNELS 3 Zrotation Yrotation Xrotation
              }
            }
          }
        }
        JOINT Neck
        {
          OFFSET 0 0 15.101124
          CHANNELS 3 Zrotation Yrotation Xrotation
          JOINT Head
          {
            OFFSET 0 0 11.325843
            CHANNELS 3 Zrotation Yrotation Xrotation
            End Site
            {
              OFFSET 0 0 14.157303
            }
          }
        }
      }
    }
  }
}
MOTION
Frames: 11
Frame Time: 0.0
0.0  101.685394  0.0  4.275577  32.955893  -96.958785  -0.966715  -15.760894  0.431543  -14.225986  17.1693  20.381147  0.800728  3.572558  2.611902  -24.743078  19.997061  2.656982  -11.291595  4.6876  14.948262  -1.721488  2.559072  -1.715666  -2.206569  1.541441  2.557153  -5.868697  4.437313  6.851727  -5.868697  4.437313  6.851727  -15.388954  21.54608  5.188769  95.484026  58.690631  173.944778  -28.244227  -13.725865  78.834933  60.869245  -14.233706  -16.961005  24.437752  -18.062644  13.000994  99.692365  40.997662  57.039871  19.705544  30.476369  -23.560975  101.572893  9.233258  -7.869408  -5.183606  -4.239918  -0.429969  -3.888918  -3.176566  -0.358381  
0.0  101.685394  0.0  4.224647  33.350077  -96.946669  -1.047861  -15.859921  0.335226  -14.419227  17.241824  20.421536  0.739871  3.594054  2.559411  -24.858945  19.980816  2.654561  -11.69226  4.72212  15.028279  -1.603469  2.587003  -1.696858  -2.262381  1.549243  2.5603  -6.020318  4.464566  6.855811  -6.020318  4.464566  6.855811  -15.632502  21.370687  4.979779  94.892012  58.227104  173.967701  -28.516921  -13.382831  78.906554  60.828808  -14.277276  -17.90684  24.856269  -18.211543  13.119331  99.346463  42.088583  56.676249  20.614711  29.870111  -22.964128  101.642111  9.391704  -8.559652  -5.37837  -4.322346  -0.456058  -4.035095  -3.238047  -0.38002  
0.0  101.685394  0.0  4.126995  33.490516  -97.026299  -1.011595  -15.991346  0.32869  -14.434821  17.21112  20.539455  0.548698  3.638747  2.442231  -24.738713  19.867205  2.688614  -11.760684  4.75973  15.203647  -1.642009  2.61408  -1.693949  -2.292976  1.54791  2.560262  -6.104095  4.464047  6.853676  -6.104095  4.464047  6.853676  -15.716526  21.351703  4.878881  94.4269  57.769741  173.98799  -28.662874  -13.009818  79.032086  60.727295  -14.225524  -18.72911  24.967526  -18.384386  13.142272  99.2218  42.920673  56.335768  21.36438  29.308339  -22.554576  101.725058  9.640395  -9.268143  -5.390312  -4.404068  -0.403422  -4.043654  -3.2998  -0.341362  
0.0  101.685394  0.0  4.094158  33.712091  -96.984005  -1.235415  -15.946316  0.130668  -14.238941  17.123447  20.825056  0.33808  3.693086  2.313003  -24.616798  19.804675  2.651723  -11.934043  4.761249  15.384963  -1.707434  2.631337  -1.693204  -2.337813  1.557307  2.555172  -6.226142  4.493777  6.835816  -6.226142  4.493777  6.835815  -16.006555  21.219603  4.729348  93.893705  57.286729  174.002373  -28.985802  -12.719972  78.99643  60.640371  -14.091551  -19.417053  25.239594  -18.635473  13.187176  98.948624  43.853581  56.034355  21.882289  28.731436  -22.300121  101.839094  9.943565  -9.953747  -5.554803  -4.489261  -0.407771  -4.16697  -3.363573  -0.346585  
0.0  101.685394  0.0  3.971922  33.671925  -97.017149  -1.107636  -16.028314  0.10455  -14.119195  16.940633  21.005561  0.123479  3.758656  2.16882  -24.388236  19.628191  2.576177  -11.905059  4.761843  15.61048  -1.766461  2.689776  -1.677222  -2.37256  1.545186  2.549299  -6.322712  4.463699  6.818357  -6.322711  4.463699  6.818357  -16.075797  21.249966  4.637826  93.511545  56.862137  173.973358  -29.155611  -12.371681  79.085832  60.630344  -13.855425  -20.001005  25.317053  -18.668544  13.238487  98.93586  44.627571  55.631069  22.1771  28.144042  -22.215469  101.919559  10.284994  -10.635932  -5.486153  -4.528083  -0.376665  -4.115267  -3.393008  -0.323107  
0.0  101.685394  0.0  3.914965  33.714347  -96.948207  -1.268119  -15.943943  -0.053522  -14.179858  16.828339  21.049276  0.24444  3.820762  2.139925  -24.256908  19.49219  2.405877  -11.743777  4.726334  15.87824  -1.890276  2.733145  -1.677761  -2.436078  1.548591  2.538207  -6.496833  4.478351  6.783267  -6.496833  4.478351  6.783266  -16.181122  21.188313  4.543677  92.643125  56.429935  173.606399  -29.593707  -12.184822  79.041524  60.675027  -13.551775  -20.495008  25.693655  -18.737836  13.335217  98.764342  45.478066  55.220093  22.232285  27.551106  -22.222334  101.91632  10.666826  -11.330544  -5.513596  -4.572968  -0.395087  -4.135962  -3.426496  -0.337525  
0.0  101.685394  0.0  3.745948  33.400883  -97.053827  -1.078134  -16.013667  0.037728  -13.976464  16.563313  21.206438  0.152682  3.866419  2.049574  -23.904438  19.304517  2.304735  -11.633296  4.686183  16.14151  -1.916667  2.805873  -1.666281  -2.461158  1.524606  2.538289  -6.567659  4.415474  6.783901  -6.567659  4.415474  6.7839  -16.202789  21.297856  4.558461  92.314512  56.11736  173.501519  -29.641086  -12.07513  79.138658  60.725618  -13.206256  -20.843679  25.81598  -18.778382  13.378677  98.919746  46.083134  54.920743  22.181761  26.96766  -22.311547  101.82901  11.090987  -12.036435  -5.341898  -4.546668  -0.365896  -4.007046  -3.407114  -0.314123  
0.0  101.685394  0.0  3.590887  33.033783  -97.15187  -0.999307  -15.994198  0.113229  -14.001763  16.319528  21.159709  0.408128  3.942499  2.142648  -23.515879  19.122039  2.20086  -11.369362  4.6343  16.427025  -2.065191  2.813512  -1.674351  -2.497374  1.510109  2.543305  -6.667695  4.380085  6.796439  -6.667695  4.380085  6.796439  -16.304998  21.319946  4.586492  92.114249  55.898302  173.411497  -29.680282  -12.079591  79.215715  60.7427  -12.867937  -20.991975  26.036694  -18.858837  13.394393  99.125085  46.655898  54.643643  22.018426  26.399887  -22.454705  101.661251  11.592284  -12.794554  -5.249676  -4.51404  -0.378966  -3.938022  -3.382574  -0.322953  
0.0  101.685394  0.0  3.364335  32.445732  -97.331646  -0.732081  -16.074208  0.316359  -13.778371  15.96509  21.281203  0.440215  3.992098  2.108231  -23.150641  18.862501  2.057355  -11.239606  4.639187  16.663107  -1.947053  2.875691  -1.64915  -2.525565  1.474072  2.548705  -6.747806  4.285198  6.81263  -6.747806  4.285199  6.81263  -16.113443  21.410926  4.658208  91.961899  55.662686  173.47361  -29.609974  -12.138703  79.333237  60.751764  -12.537518  -20.894452  26.10962  -18.825504  13.441845  99.482358  47.149747  54.335311  21.859633  25.861776  -22.658288  101.496049  12.206818  -13.535653  -4.930045  -4.430454  -0.337755  -3.698142  -3.320375  -0.289016  
0.0  101.685394  0.0  3.120745  31.782042  -97.531104  -0.648216  -16.066063  0.495443  -13.723472  15.648366  21.273129  0.902753  4.054935  2.237899  -22.889963  18.577425  1.856061  -10.913468  4.650018  16.914064  -1.838463  2.914289  -1.621426  -2.55778  1.443484  2.564033  -6.837753  4.206606  6.855262  -6.837753  4.206606  6.855262  -16.146493  21.507357  4.691838  91.936214  55.493636  173.342443  -29.621249  -12.194248  79.505523  60.752756  -12.242695  -20.561841  26.214008  -18.84258  13.451704  99.811892  47.683805  54.004293  21.75447  25.389975  -22.899162  101.340544  12.925054  -14.259827  -4.667104  -4.328543  -0.327329  -3.500984  -3.244134  -0.278511  
0.0  101.685394  0.0  2.807747  30.846973  -97.81838  -0.3205  -16.172936  0.853787  -13.436581  15.169827  21.37362  1.059787  4.121619  2.241537  -22.565926  18.212719  1.648484  -10.585891  4.699947  17.131179  -1.611893  2.958506  -1.573745  -2.571413  1.398138  2.583749  -6.87808  4.086358  6.912595  -6.87808  4.086358  6.912595  -16.174346  21.77192  4.660703  92.040969  55.281895  173.132355  -29.596383  -12.19725  79.74045  60.72262  -11.977415  -20.077251  26.261762  -18.849219  13.449713  100.034511  48.177969  53.595274  21.795595  25.071998  -23.196915  101.166922  13.756339  -14.946496  -4.223302  -4.231453  -0.287027  -3.168026  -3.171788  -0.244475  
